<svg width="500" height="500" viewBox="0 0 500 500" fill="none" xmlns="http://www.w3.org/2000/svg">
<path d="M178.32 362.23L190 369C191.342 369.681 192.825 370.036 194.33 370.036C195.835 370.036 197.318 369.681 198.66 369L311.86 303.64C314.25 302.26 314.25 300.02 311.86 298.64L300.21 291.91C298.868 291.229 297.385 290.874 295.88 290.874C294.375 290.874 292.892 291.229 291.55 291.91L178.35 357.27C175.93 358.61 175.93 360.85 178.32 362.23Z" fill="#E0E0E0"/>
<path d="M392.84 384.76C421.421 384.76 444.59 372.076 444.59 356.43C444.59 340.784 421.421 328.1 392.84 328.1C364.259 328.1 341.09 340.784 341.09 356.43C341.09 372.076 364.259 384.76 392.84 384.76Z" fill="#E0E0E0"/>
<path d="M73.79 383.84C90.01 391.57 116.31 391.57 132.53 383.84C148.75 376.11 148.75 363.58 132.53 355.84C116.31 348.1 90.01 348.11 73.79 355.84C57.57 363.57 57.57 376.11 73.79 383.84Z" fill="#E0E0E0"/>
<path d="M308.83 61.63C308.55 59.63 306.94 58.89 305 60.02L198.52 121.49C197.394 122.227 196.457 123.218 195.785 124.383C195.112 125.549 194.724 126.856 194.65 128.2V363.2C194.65 365.47 196.13 366.51 198.03 365.67C196.877 366.162 195.631 366.395 194.378 366.354C193.126 366.312 191.898 365.997 190.78 365.43L186.34 362.88C185.211 362.146 184.271 361.155 183.597 359.989C182.923 358.823 182.533 357.515 182.46 356.17V121.18C182.531 119.835 182.919 118.525 183.594 117.359C184.268 116.193 185.209 115.203 186.34 114.47L292.81 53C294.008 52.3889 295.335 52.0704 296.68 52.0704C298.025 52.0704 299.351 52.3889 300.55 53L305 55.54C306.037 56.2223 306.915 57.119 307.576 58.1695C308.236 59.2201 308.664 60.4001 308.83 61.63V61.63Z" fill="#455A64"/>
<path d="M305 60L198.52 121.49C197.394 122.227 196.457 123.218 195.785 124.383C195.112 125.549 194.724 126.856 194.65 128.2V363.2C194.65 365.66 196.39 366.67 198.52 365.43L305 303.92C306.125 303.183 307.062 302.191 307.734 301.026C308.406 299.86 308.795 298.553 308.87 297.21V62.21C308.87 59.79 307.13 58.78 305 60ZM303.29 275.07C303.29 277.18 301.81 278.52 299.97 279.58L203.16 335.47C201.33 336.53 199.84 335.68 199.84 333.56V150.64C199.904 149.487 200.238 148.365 200.815 147.365C201.391 146.365 202.194 145.513 203.16 144.88L300 89C301.84 87.94 303.32 88.8 303.32 90.91L303.29 275.07Z" fill="#37474F"/>
<path d="M198 365.63C196.847 366.122 195.601 366.355 194.348 366.314C193.096 366.272 191.868 365.957 190.75 365.39L186.31 362.84C185.182 362.104 184.243 361.114 183.569 359.948C182.895 358.782 182.505 357.474 182.43 356.13V121.18C182.48 119.827 182.872 118.51 183.57 117.35L195.76 124.35C195.064 125.507 194.672 126.821 194.62 128.17V363.17C194.65 365.43 196.13 366.47 198 365.63Z" fill="#263238"/>
<path d="M251.76 95.93C253.19 95.1 254.36 95.77 254.36 97.43C254.309 98.3312 254.047 99.2078 253.595 99.9893C253.144 100.771 252.515 101.436 251.76 101.93C250.33 102.75 249.16 102.08 249.16 100.43C249.21 99.5287 249.472 98.6518 249.924 97.8701C250.375 97.0884 251.004 96.4239 251.76 95.93V95.93Z" fill="#263238"/>
<path d="M250 329C249.355 329.007 248.719 328.842 248.16 328.52C246.84 327.76 246.16 326.2 246.16 324.13C246.284 321.926 246.924 319.783 248.029 317.872C249.133 315.961 250.672 314.337 252.52 313.13C254.31 312.13 256.03 311.94 257.34 312.7C258.65 313.46 259.34 315.02 259.34 317.09C259.219 319.294 258.579 321.439 257.474 323.35C256.369 325.261 254.83 326.885 252.98 328.09C252.084 328.65 251.056 328.964 250 329V329ZM255.46 313.21C254.581 313.248 253.726 313.514 252.98 313.98C251.277 315.095 249.859 316.594 248.841 318.357C247.823 320.12 247.234 322.098 247.12 324.13C247.12 325.83 247.66 327.08 248.66 327.66C249.66 328.24 251.01 328.08 252.48 327.23C254.184 326.114 255.603 324.613 256.621 322.848C257.639 321.084 258.228 319.104 258.34 317.07C258.34 315.37 257.8 314.12 256.8 313.55C256.376 313.313 255.895 313.199 255.41 313.22L255.46 313.21Z" fill="#E6E6E6"/>
<path d="M241.74 111.72L261.74 100.15C262.94 99.46 263.91 99.95 263.91 101.24C263.857 101.969 263.633 102.674 263.256 103.3C262.879 103.925 262.359 104.453 261.74 104.84L241.74 116.41C240.54 117.1 239.57 116.61 239.57 115.32C239.623 114.591 239.847 113.886 240.224 113.26C240.601 112.635 241.12 112.107 241.74 111.72V111.72Z" fill="#263238"/>
<path d="M303.29 275.09C303.29 277.2 301.81 278.54 299.97 279.6L203.16 335.49C201.33 336.55 199.84 335.7 199.84 333.58V150.64C199.904 149.487 200.238 148.365 200.815 147.365C201.391 146.365 202.195 145.513 203.16 144.88L300 89C301.84 87.94 303.32 88.8 303.32 90.91L303.29 275.09Z" fill="#5600FF"/>
<path opacity="0.75" d="M303.29 275.09C303.29 277.2 301.81 278.54 299.97 279.6L203.16 335.49C201.33 336.55 199.84 335.7 199.84 333.58V150.64C199.904 149.487 200.238 148.365 200.815 147.365C201.391 146.365 202.195 145.513 203.16 144.88L300 89C301.84 87.94 303.32 88.8 303.32 90.91L303.29 275.09Z" fill="white"/>
<path d="M300 89L203.19 144.88C202.224 145.513 201.421 146.365 200.845 147.365C200.268 148.365 199.934 149.487 199.87 150.64V163L303.32 103.26V90.91C303.29 88.8 301.81 87.94 300 89Z" fill="#5600FF"/>
<path d="M199.84 320.09V333.58C199.84 335.7 201.33 336.58 203.16 335.49L300 279.6C301.84 278.54 303.32 277.2 303.32 275.09V260.37L199.84 320.09Z" fill="#5600FF"/>
<path opacity="0.15" d="M208.35 320.3L280.69 278.5C282.36 277.5 283.69 278.32 283.69 280.25C283.635 281.299 283.335 282.32 282.814 283.231C282.293 284.143 281.565 284.92 280.69 285.5L208.35 327.3C206.68 328.3 205.35 327.48 205.35 325.55C205.405 324.501 205.705 323.48 206.226 322.569C206.747 321.657 207.475 320.88 208.35 320.3V320.3Z" fill="black"/>
<path d="M288.88 272.64V274.77C288.88 275.25 289.13 275.58 289.43 275.51L292.84 274.72C293.14 274.65 293.14 274.82 292.84 275.1L289.43 278.24C289.088 278.616 288.893 279.102 288.88 279.61V281.74C288.88 282.22 289.12 282.33 289.41 281.99L297.5 272.53C297.78 272.19 297.78 271.91 297.5 271.91L289.41 271.78C289.12 271.78 288.88 272.16 288.88 272.64Z" fill="#455A64"/>
<path d="M222.4 196.65L217.26 193.65C217.159 193.609 217.074 193.535 217.02 193.44L216.08 191.79L219.08 190.03L218.99 190.29L222.4 196.65Z" fill="#E0E0E0"/>
<path d="M218.66 190.31L222.22 196.47C222.265 196.571 222.34 196.656 222.436 196.712C222.531 196.769 222.642 196.794 222.752 196.784C222.863 196.774 222.967 196.729 223.051 196.657C223.135 196.585 223.194 196.488 223.22 196.38L226.98 185.52L218.66 190.31Z" fill="#F0F0F0"/>
<path d="M255.85 145.69C255.803 144.826 255.553 143.986 255.12 143.237C254.688 142.488 254.085 141.852 253.36 141.38C252.587 140.981 251.73 140.773 250.86 140.773C249.99 140.773 249.133 140.981 248.36 141.38L208.14 164.6C207.416 165.073 206.814 165.71 206.382 166.458C205.949 167.207 205.698 168.047 205.65 168.91V189.29C205.697 190.154 205.947 190.994 206.379 191.743C206.812 192.492 207.415 193.128 208.14 193.6V193.6C208.913 193.999 209.77 194.207 210.64 194.207C211.51 194.207 212.367 193.999 213.14 193.6L253.62 170.22C255.86 168.95 255.88 167.67 255.88 166.08L255.85 145.69Z" fill="#F0F0F0"/>
<path d="M205.65 189.29C205.697 190.154 205.947 190.994 206.379 191.743C206.812 192.492 207.415 193.128 208.14 193.6C208.838 193.955 209.604 194.158 210.387 194.194C211.17 194.23 211.952 194.099 212.68 193.81C211.51 194.26 210.62 193.59 210.62 192.17V171.78C210.647 170.914 210.898 170.07 211.35 169.33L206.35 166.46C205.902 167.201 205.651 168.045 205.62 168.91L205.65 189.29Z" fill="#E0E0E0"/>
<path d="M255.76 145C255.47 144 254.51 143.61 253.36 144.27L213.11 167.49C212.373 167.945 211.769 168.587 211.36 169.35L206.36 166.48C206.774 165.723 207.377 165.085 208.11 164.63L248.36 141.41C249.134 141.016 249.991 140.81 250.86 140.81C251.729 140.81 252.586 141.016 253.36 141.41V141.41C253.984 141.812 254.519 142.339 254.932 142.956C255.345 143.574 255.627 144.269 255.76 145Z" fill="#FAFAFA"/>
<path d="M217.3 176.64L246.06 160C246.89 159.52 247.56 159.74 247.56 160.49C247.501 160.953 247.334 161.395 247.074 161.782C246.813 162.169 246.466 162.491 246.06 162.72L217.3 179.36C216.47 179.84 215.8 179.62 215.8 178.87C215.859 178.407 216.026 177.965 216.286 177.578C216.547 177.191 216.894 176.869 217.3 176.64V176.64Z" fill="#455A64"/>
<path d="M217.3 182.54L237.3 170.92C238.14 170.44 238.81 170.66 238.81 171.41C238.749 171.874 238.581 172.317 238.319 172.704C238.057 173.091 237.708 173.412 237.3 173.64L217.3 185.26C216.47 185.74 215.8 185.52 215.8 184.77C215.859 184.307 216.026 183.865 216.286 183.478C216.547 183.091 216.894 182.769 217.3 182.54V182.54Z" fill="#455A64"/>
<path d="M217.3 170.76L246.06 154.08C246.89 153.6 247.56 153.82 247.56 154.57C247.501 155.033 247.334 155.475 247.074 155.862C246.813 156.249 246.466 156.571 246.06 156.8L217.3 173.48C216.47 173.96 215.8 173.74 215.8 172.99C215.859 172.527 216.026 172.085 216.286 171.698C216.547 171.311 216.894 170.989 217.3 170.76V170.76Z" fill="#455A64"/>
<path d="M216.94 198.82L213.79 197.02C213.25 196.774 212.654 196.676 212.064 196.736C211.474 196.795 210.91 197.011 210.43 197.36C209.122 198.173 208.028 199.287 207.24 200.61C206.274 202.105 205.726 203.832 205.65 205.61C205.589 206.203 205.687 206.801 205.933 207.344C206.179 207.887 206.564 208.355 207.05 208.7L210.2 210.51C210.747 210.788 211.36 210.908 211.971 210.857C212.582 210.806 213.167 210.585 213.66 210.22C215.051 209.314 216.208 208.093 217.038 206.656C217.869 205.219 218.349 203.607 218.44 201.95C218.504 201.341 218.398 200.725 218.133 200.173C217.868 199.62 217.455 199.152 216.94 198.82V198.82Z" fill="#455A64"/>
<path d="M213.79 197C213.25 196.754 212.654 196.656 212.064 196.716C211.474 196.775 210.91 196.991 210.43 197.34C209.125 198.156 208.031 199.27 207.24 200.59C206.274 202.085 205.726 203.812 205.65 205.59C205.587 206.183 205.684 206.782 205.93 207.325C206.176 207.869 206.563 208.336 207.05 208.68L210.17 210.47C209.724 210.115 209.373 209.656 209.148 209.132C208.922 208.609 208.831 208.038 208.88 207.47C208.972 205.812 209.453 204.199 210.283 202.76C211.114 201.322 212.27 200.099 213.66 199.19C214.125 198.862 214.664 198.653 215.229 198.581C215.794 198.51 216.368 198.578 216.9 198.78L213.79 197Z" fill="#37474F"/>
<path d="M213.46 200.66C214.34 200.15 215.05 200.56 215.05 201.57C215.02 202.123 214.861 202.661 214.585 203.14C214.309 203.62 213.923 204.027 213.46 204.33C212.58 204.83 211.87 204.42 211.87 203.41C211.898 202.858 212.056 202.321 212.333 201.843C212.609 201.365 212.996 200.959 213.46 200.66V200.66Z" fill="white"/>
<path d="M213.67 209.36C214.905 208.578 215.912 207.485 216.59 206.19V206.06C216.59 204.39 215.42 203.72 213.98 204.55L213.08 205.07C212.355 205.545 211.745 206.178 211.297 206.92C210.849 207.663 210.573 208.497 210.49 209.36C210.559 209.438 210.636 209.508 210.72 209.57V209.57C211.181 209.817 211.703 209.929 212.225 209.892C212.747 209.854 213.248 209.67 213.67 209.36V209.36Z" fill="white"/>
<path d="M222.4 270.63L217.26 267.63C217.161 267.586 217.077 267.513 217.02 267.42L216.08 265.77L219.08 264L218.99 264.27L222.4 270.63Z" fill="#E0E0E0"/>
<path d="M218.66 264.29L222.22 270.45C222.265 270.551 222.34 270.636 222.436 270.692C222.531 270.749 222.642 270.774 222.752 270.764C222.863 270.754 222.967 270.709 223.051 270.637C223.135 270.565 223.194 270.468 223.22 270.36L226.98 259.5L218.66 264.29Z" fill="#F0F0F0"/>
<path d="M255.85 219.67C255.803 218.806 255.553 217.966 255.12 217.217C254.688 216.468 254.085 215.832 253.36 215.36C252.586 214.966 251.729 214.76 250.86 214.76C249.991 214.76 249.134 214.966 248.36 215.36L208.11 238.58C207.385 239.052 206.782 239.688 206.349 240.437C205.917 241.186 205.667 242.026 205.62 242.89V263.27C205.668 264.133 205.919 264.973 206.352 265.722C206.784 266.47 207.386 267.107 208.11 267.58V267.58C208.883 267.979 209.74 268.187 210.61 268.187C211.48 268.187 212.337 267.979 213.11 267.58L253.59 244.2C255.83 242.92 255.85 241.64 255.85 240.06V219.67Z" fill="#F0F0F0"/>
<path d="M205.65 263.27C205.698 264.133 205.949 264.973 206.382 265.722C206.814 266.47 207.416 267.107 208.14 267.58V267.58C208.838 267.935 209.604 268.138 210.387 268.174C211.17 268.21 211.952 268.079 212.68 267.79C211.51 268.23 210.62 267.57 210.62 266.15V245.75C210.651 244.885 210.902 244.041 211.35 243.3L206.35 240.44C205.901 241.181 205.649 242.024 205.62 242.89L205.65 263.27Z" fill="#E0E0E0"/>
<path d="M255.76 219C255.47 217.94 254.51 217.61 253.36 218.27L213.11 241.49C212.371 241.943 211.767 242.585 211.36 243.35L206.36 240.48C206.774 239.723 207.377 239.085 208.11 238.63L248.36 215.4C249.136 215.01 249.992 214.807 250.86 214.807C251.728 214.807 252.584 215.01 253.36 215.4V215.4C253.985 215.804 254.52 216.332 254.933 216.952C255.345 217.571 255.627 218.268 255.76 219V219Z" fill="#FAFAFA"/>
<path d="M217.3 250.62L246.06 233.93C246.89 233.45 247.56 233.67 247.56 234.43C247.499 234.891 247.332 235.331 247.072 235.717C246.811 236.102 246.465 236.422 246.06 236.65L217.3 253.33C216.47 253.82 215.8 253.6 215.8 252.84C215.861 252.379 216.028 251.939 216.288 251.553C216.549 251.168 216.895 250.848 217.3 250.62Z" fill="#455A64"/>
<path d="M217.3 256.51L237.3 244.9C238.14 244.42 238.81 244.64 238.81 245.39C238.749 245.854 238.581 246.297 238.319 246.684C238.057 247.071 237.708 247.392 237.3 247.62L217.3 259.23C216.47 259.71 215.8 259.49 215.8 258.74C215.859 258.277 216.026 257.835 216.286 257.448C216.547 257.061 216.894 256.739 217.3 256.51Z" fill="#455A64"/>
<path d="M217.3 244.74L246.06 228.06C246.89 227.57 247.56 227.79 247.56 228.55C247.501 229.013 247.334 229.455 247.074 229.842C246.813 230.229 246.466 230.551 246.06 230.78L217.3 247.46C216.47 247.94 215.8 247.72 215.8 246.97C215.859 246.507 216.026 246.065 216.286 245.678C216.547 245.291 216.894 244.969 217.3 244.74V244.74Z" fill="#455A64"/>
<path d="M216.94 272.8L213.79 271C213.25 270.754 212.654 270.656 212.064 270.716C211.474 270.775 210.91 270.991 210.43 271.34C209.122 272.153 208.028 273.267 207.24 274.59C206.274 276.085 205.726 277.812 205.65 279.59C205.589 280.183 205.687 280.781 205.933 281.324C206.179 281.867 206.564 282.335 207.05 282.68L210.2 284.48C210.745 284.762 211.358 284.885 211.97 284.835C212.582 284.786 213.167 284.566 213.66 284.2C215.052 283.293 216.21 282.071 217.041 280.632C217.871 279.193 218.351 277.579 218.44 275.92C218.503 275.312 218.397 274.698 218.132 274.148C217.867 273.597 217.454 273.13 216.94 272.8V272.8Z" fill="#455A64"/>
<path d="M213.79 271C213.25 270.754 212.654 270.656 212.064 270.716C211.474 270.775 210.91 270.991 210.43 271.34C209.125 272.156 208.031 273.27 207.24 274.59C206.274 276.085 205.726 277.812 205.65 279.59C205.587 280.183 205.684 280.782 205.93 281.325C206.176 281.869 206.563 282.336 207.05 282.68L210.17 284.46C209.722 284.107 209.369 283.648 209.144 283.124C208.918 282.6 208.828 282.028 208.88 281.46C208.949 279.68 209.499 277.953 210.47 276.46C211.258 275.135 212.352 274.017 213.66 273.2C214.125 272.872 214.664 272.663 215.229 272.591C215.794 272.52 216.368 272.588 216.9 272.79L213.79 271Z" fill="#37474F"/>
<path d="M213.46 274.63C214.34 274.13 215.05 274.54 215.05 275.55C215.021 276.101 214.861 276.638 214.585 277.116C214.308 277.594 213.923 277.999 213.46 278.3C212.58 278.81 211.87 278.4 211.87 277.39C211.899 276.837 212.059 276.299 212.335 275.82C212.611 275.34 212.997 274.933 213.46 274.63Z" fill="white"/>
<path d="M213.67 283.34C214.905 282.554 215.912 281.458 216.59 280.16V280C216.59 278.33 215.42 277.66 213.98 278.49L213.08 279.01C212.355 279.483 211.745 280.114 211.297 280.855C210.849 281.596 210.573 282.428 210.49 283.29C210.557 283.373 210.634 283.447 210.72 283.51V283.51C211.178 283.763 211.698 283.881 212.22 283.851C212.742 283.821 213.244 283.644 213.67 283.34V283.34Z" fill="white"/>
<path d="M282.55 200.73L277.41 197.73C277.309 197.689 277.224 197.615 277.17 197.52L276.22 195.87L279.28 194.11L279.18 194.38L282.55 200.73Z" fill="#5600FF"/>
<g opacity="0.1">
<path d="M282.55 200.73L277.41 197.73C277.309 197.689 277.224 197.615 277.17 197.52L276.22 195.87L279.28 194.11L279.18 194.38L282.55 200.73Z" fill="black"/>
</g>
<path d="M278.81 194.39L282.37 200.55C282.415 200.651 282.49 200.736 282.586 200.792C282.681 200.849 282.792 200.874 282.902 200.864C283.013 200.854 283.117 200.809 283.201 200.737C283.285 200.665 283.344 200.568 283.37 200.46L287.13 189.61L278.81 194.39Z" fill="#5600FF"/>
<path d="M298.29 160.05C298.243 159.187 297.995 158.348 297.564 157.599C297.133 156.851 296.532 156.214 295.81 155.74V155.74C295.036 155.346 294.179 155.14 293.31 155.14C292.441 155.14 291.584 155.346 290.81 155.74L250.59 179C249.865 179.469 249.261 180.104 248.829 180.851C248.396 181.598 248.146 182.438 248.1 183.3V203.69C248.146 204.552 248.396 205.392 248.829 206.139C249.261 206.886 249.865 207.521 250.59 207.99V207.99C251.364 208.384 252.221 208.59 253.09 208.59C253.959 208.59 254.816 208.384 255.59 207.99L296 184.57C298.23 183.3 298.25 182.02 298.25 180.43L298.29 160.05Z" fill="#5600FF"/>
<path d="M261.48 190L290.23 173.32C291.06 172.84 291.74 173.06 291.74 173.81C291.679 174.274 291.511 174.717 291.249 175.104C290.987 175.491 290.638 175.812 290.23 176.04L261.48 192.72C260.65 193.2 259.97 192.98 259.97 192.23C260.03 191.766 260.198 191.323 260.461 190.936C260.723 190.549 261.072 190.228 261.48 190Z" fill="#455A64"/>
<path d="M270.19 190.77L290.19 179.15C291.02 178.67 291.7 178.89 291.7 179.64C291.639 180.104 291.471 180.547 291.209 180.934C290.947 181.321 290.598 181.642 290.19 181.87L270.19 193.49C269.36 193.97 268.68 193.75 268.68 193C268.74 192.536 268.908 192.093 269.171 191.706C269.433 191.319 269.782 190.998 270.19 190.77V190.77Z" fill="#455A64"/>
<path d="M261.48 184.12L290.23 167.44C291.06 166.96 291.74 167.18 291.74 167.93C291.679 168.394 291.511 168.837 291.249 169.224C290.987 169.611 290.638 169.932 290.23 170.16L261.48 186.84C260.65 187.32 259.97 187.1 259.97 186.35C260.03 185.886 260.198 185.443 260.461 185.056C260.723 184.669 261.072 184.348 261.48 184.12Z" fill="#455A64"/>
<path opacity="0.1" d="M248.1 203.66C248.146 204.522 248.396 205.362 248.829 206.109C249.261 206.856 249.865 207.491 250.59 207.96V207.96C251.292 208.311 252.059 208.51 252.843 208.547C253.626 208.583 254.409 208.454 255.14 208.17C253.97 208.61 253.08 207.94 253.08 206.52V186.14C253.11 185.274 253.361 184.431 253.81 183.69L248.81 180.82C248.362 181.561 248.111 182.405 248.08 183.27L248.1 203.66Z" fill="black"/>
<path opacity="0.3" d="M298.21 159.34C297.92 158.29 296.96 157.95 295.81 158.61L255.55 181.83C254.815 182.288 254.212 182.929 253.8 183.69L248.8 180.83C249.212 180.069 249.815 179.428 250.55 178.97L290.79 155.75C291.565 155.357 292.421 155.153 293.29 155.153C294.159 155.153 295.015 155.357 295.79 155.75C296.416 156.152 296.954 156.678 297.37 157.295C297.786 157.913 298.072 158.608 298.21 159.34V159.34Z" fill="white"/>
<path d="M296.78 193L293.64 191.2C293.1 190.954 292.504 190.856 291.914 190.916C291.324 190.975 290.76 191.191 290.28 191.54C288.97 192.35 287.876 193.465 287.09 194.79C286.122 196.284 285.573 198.011 285.5 199.79C285.437 200.382 285.533 200.98 285.777 201.523C286.021 202.066 286.405 202.534 286.89 202.88L290.05 204.69C290.597 204.968 291.21 205.088 291.821 205.037C292.432 204.986 293.017 204.765 293.51 204.4C294.902 203.493 296.06 202.271 296.891 200.832C297.721 199.393 298.201 197.779 298.29 196.12C298.354 195.511 298.246 194.896 297.979 194.345C297.712 193.794 297.297 193.328 296.78 193Z" fill="#455A64"/>
<path d="M293.64 191.21C293.1 190.964 292.504 190.866 291.914 190.926C291.324 190.985 290.76 191.201 290.28 191.55C288.97 192.36 287.876 193.475 287.09 194.8C286.122 196.294 285.573 198.021 285.5 199.8C285.437 200.392 285.533 200.99 285.777 201.533C286.021 202.076 286.405 202.544 286.89 202.89L290.01 204.68C289.567 204.323 289.219 203.863 288.996 203.34C288.772 202.817 288.681 202.247 288.73 201.68C288.801 199.901 289.35 198.173 290.32 196.68C291.105 195.352 292.2 194.234 293.51 193.42C293.975 193.092 294.514 192.883 295.079 192.811C295.644 192.74 296.218 192.808 296.75 193.01L293.64 191.21Z" fill="#37474F"/>
<path d="M293.24 195C294.11 194.49 294.83 194.91 294.83 195.92C294.799 196.471 294.639 197.007 294.363 197.485C294.087 197.962 293.702 198.368 293.24 198.67C292.36 199.18 291.65 198.77 291.65 197.75C291.68 197.199 291.84 196.663 292.116 196.185C292.392 195.707 292.777 195.301 293.24 195Z" fill="#5600FF"/>
<path d="M293.44 203.72C294.68 202.937 295.691 201.84 296.37 200.54V200.42C296.37 198.75 295.2 198.08 293.76 198.91L292.86 199.43C292.135 199.904 291.525 200.535 291.075 201.275C290.625 202.016 290.347 202.848 290.26 203.71C290.335 203.788 290.415 203.862 290.5 203.93V203.93C290.959 204.178 291.48 204.289 292.001 204.252C292.521 204.215 293.02 204.03 293.44 203.72Z" fill="#5600FF"/>
<path d="M281.08 257.46L278.19 255.79C278.161 255.78 278.135 255.764 278.112 255.744C278.09 255.723 278.072 255.698 278.06 255.67L277.52 254.74L279.24 253.74L279.19 253.9L281.08 257.46Z" fill="#5600FF"/>
<g opacity="0.1">
<path d="M281.08 257.46L278.19 255.79C278.161 255.78 278.135 255.764 278.112 255.744C278.09 255.723 278.072 255.698 278.06 255.67L277.52 254.74L279.24 253.74L279.19 253.9L281.08 257.46Z" fill="black"/>
</g>
<path d="M279 253.9L281 257.36C281.029 257.409 281.071 257.449 281.122 257.474C281.172 257.5 281.229 257.511 281.286 257.506C281.342 257.501 281.396 257.479 281.441 257.445C281.486 257.41 281.521 257.363 281.54 257.31L283.65 251.21L279 253.9Z" fill="#5600FF"/>
<path d="M294.65 236.67C294.601 235.808 294.351 234.97 293.918 234.223C293.486 233.476 292.883 232.841 292.16 232.37V232.37C291.386 231.976 290.529 231.77 289.66 231.77C288.791 231.77 287.934 231.976 287.16 232.37L272.91 240.59C272.188 241.062 271.587 241.697 271.156 242.444C270.725 243.191 270.477 244.029 270.43 244.89V250.33C270.475 251.193 270.723 252.033 271.154 252.782C271.585 253.531 272.187 254.167 272.91 254.64C273.683 255.039 274.54 255.247 275.41 255.247C276.28 255.247 277.137 255.039 277.91 254.64L292.39 246.26C294.63 244.99 294.65 243.71 294.65 242.13V236.67Z" fill="#5600FF"/>
<path opacity="0.1" d="M270.46 250.33C270.505 251.193 270.753 252.033 271.184 252.782C271.615 253.531 272.217 254.167 272.94 254.64V254.64C273.64 254.995 274.408 255.198 275.192 255.234C275.977 255.27 276.76 255.139 277.49 254.85C276.32 255.3 275.43 254.63 275.43 253.21V247.77C275.461 246.905 275.712 246.061 276.16 245.32L271.16 242.45C270.712 243.191 270.461 244.035 270.43 244.9L270.46 250.33Z" fill="black"/>
<path opacity="0.3" d="M294.56 236C294.27 234.94 293.31 234.61 292.16 235.27L277.91 243.49C277.173 243.941 276.57 244.58 276.16 245.34L271.16 242.48C271.578 241.723 272.18 241.084 272.91 240.62L287.16 232.4C287.936 232.01 288.792 231.807 289.66 231.807C290.528 231.807 291.384 232.01 292.16 232.4V232.4C292.785 232.804 293.32 233.332 293.732 233.952C294.145 234.571 294.427 235.268 294.56 236V236Z" fill="white"/>
<path d="M280.93 246.23C280.533 246.488 280.203 246.837 279.967 247.247C279.73 247.657 279.594 248.117 279.57 248.59C279.57 249.45 280.17 249.81 280.93 249.37C281.325 249.113 281.655 248.766 281.891 248.358C282.127 247.949 282.264 247.491 282.29 247.02C282.29 246.15 281.68 245.8 280.93 246.23Z" fill="#455A64"/>
<path d="M285.23 243.74C284.833 243.998 284.503 244.347 284.267 244.757C284.03 245.167 283.894 245.627 283.87 246.1C283.87 246.96 284.48 247.32 285.23 246.88C285.625 246.623 285.955 246.276 286.191 245.868C286.427 245.459 286.564 245.001 286.59 244.53C286.59 243.66 286 243.31 285.23 243.74Z" fill="#455A64"/>
<path d="M289.54 241.25C289.144 241.507 288.815 241.854 288.579 242.262C288.343 242.671 288.206 243.129 288.18 243.6C288.18 244.47 288.79 244.82 289.54 244.39C289.941 244.129 290.273 243.776 290.51 243.36C290.746 242.944 290.88 242.478 290.9 242C290.9 241.17 290.29 240.82 289.54 241.25Z" fill="#455A64"/>
<path d="M296.78 250.73L293.64 248.93C293.1 248.684 292.504 248.586 291.914 248.646C291.324 248.705 290.76 248.921 290.28 249.27C288.97 250.08 287.876 251.195 287.09 252.52C286.122 254.014 285.573 255.741 285.5 257.52C285.437 258.112 285.533 258.71 285.777 259.253C286.021 259.796 286.405 260.264 286.89 260.61L290.05 262.42C290.597 262.698 291.21 262.818 291.821 262.767C292.432 262.716 293.017 262.495 293.51 262.13C294.901 261.224 296.058 260.003 296.888 258.566C297.719 257.129 298.199 255.517 298.29 253.86C298.354 253.249 298.247 252.633 297.98 252.08C297.714 251.527 297.298 251.06 296.78 250.73V250.73Z" fill="#455A64"/>
<path d="M293.64 248.93C293.1 248.684 292.504 248.586 291.914 248.646C291.324 248.705 290.76 248.921 290.28 249.27C288.97 250.08 287.876 251.195 287.09 252.52C286.122 254.014 285.573 255.741 285.5 257.52C285.437 258.112 285.533 258.71 285.777 259.253C286.021 259.796 286.405 260.264 286.89 260.61L290.01 262.4C289.567 262.043 289.219 261.583 288.996 261.06C288.772 260.537 288.681 259.967 288.73 259.4C288.801 257.621 289.35 255.893 290.32 254.4C291.108 253.075 292.202 251.957 293.51 251.14C293.975 250.812 294.514 250.603 295.079 250.531C295.644 250.46 296.218 250.528 296.75 250.73L293.64 248.93Z" fill="#37474F"/>
<path d="M293.24 252.73C294.11 252.23 294.83 252.64 294.83 253.65C294.799 254.201 294.639 254.737 294.363 255.215C294.087 255.692 293.702 256.098 293.24 256.4C292.36 256.91 291.65 256.5 291.65 255.48C291.68 254.929 291.84 254.393 292.116 253.915C292.392 253.437 292.777 253.031 293.24 252.73Z" fill="#5600FF"/>
<path d="M293.44 261.44C294.68 260.658 295.691 259.56 296.37 258.26V258.14C296.37 256.47 295.2 255.8 293.76 256.63L292.86 257.15C292.135 257.624 291.525 258.255 291.075 258.995C290.625 259.736 290.347 260.568 290.26 261.43C290.335 261.508 290.415 261.582 290.5 261.65V261.65C290.959 261.898 291.48 262.009 292.001 261.972C292.521 261.935 293.02 261.75 293.44 261.44V261.44Z" fill="#5600FF"/>
<path d="M383.59 214.1L378.45 211.1C378.35 211.052 378.266 210.975 378.21 210.88L377.27 209.23L380.32 207.47L380.22 207.74L383.59 214.1Z" fill="#E0E0E0"/>
<path d="M379.85 207.76L383.41 213.92C383.455 214.021 383.53 214.106 383.626 214.162C383.721 214.219 383.832 214.244 383.942 214.234C384.053 214.224 384.157 214.179 384.241 214.107C384.325 214.035 384.384 213.938 384.41 213.83L388.13 203L379.85 207.76Z" fill="#F0F0F0"/>
<path d="M417 163.14C416.952 162.277 416.701 161.437 416.268 160.688C415.836 159.94 415.234 159.303 414.51 158.83V158.83C413.737 158.431 412.88 158.223 412.01 158.223C411.14 158.223 410.283 158.431 409.51 158.83L369.26 182.04C368.536 182.513 367.934 183.15 367.502 183.898C367.069 184.647 366.819 185.487 366.77 186.35V206.73C366.817 207.594 367.067 208.434 367.5 209.183C367.932 209.932 368.535 210.568 369.26 211.04V211.04C370.034 211.434 370.891 211.64 371.76 211.64C372.629 211.64 373.486 211.434 374.26 211.04L414.74 187.65C416.97 186.38 417 185.1 417 183.51V163.14Z" fill="#F0F0F0"/>
<path d="M366.84 206.74C366.887 207.604 367.137 208.444 367.57 209.193C368.002 209.942 368.605 210.578 369.33 211.05V211.05C370.03 211.401 370.796 211.601 371.579 211.635C372.361 211.669 373.142 211.538 373.87 211.25C372.7 211.7 371.81 211.03 371.81 209.61V189.23C371.84 188.364 372.091 187.521 372.54 186.78L367.54 183.91C367.092 184.651 366.841 185.495 366.81 186.36L366.84 206.74Z" fill="#E0E0E0"/>
<path d="M417 162.43C416.71 161.38 415.75 161.04 414.6 161.7L374.3 184.92C373.563 185.375 372.959 186.017 372.55 186.78L367.55 183.92C367.963 183.159 368.566 182.518 369.3 182.06L409.54 158.84C410.315 158.447 411.171 158.243 412.04 158.243C412.909 158.243 413.765 158.447 414.54 158.84V158.84C415.174 159.238 415.719 159.762 416.142 160.38C416.566 160.997 416.857 161.695 417 162.43V162.43Z" fill="#F5F5F5"/>
<path d="M378.49 194.09L407.24 177.41C408.08 176.93 408.75 177.15 408.75 177.9C408.69 178.364 408.521 178.807 408.259 179.194C407.997 179.581 407.648 179.902 407.24 180.13L378.49 196.81C377.66 197.29 376.99 197.07 376.99 196.32C377.049 195.857 377.216 195.415 377.476 195.028C377.737 194.641 378.084 194.319 378.49 194.09V194.09Z" fill="#455A64"/>
<path d="M378.49 200L398.49 188.38C399.32 187.9 400 188.12 400 188.87C399.94 189.334 399.771 189.777 399.509 190.164C399.247 190.551 398.898 190.872 398.49 191.1L378.49 202.72C377.66 203.2 376.99 202.98 376.99 202.23C377.049 201.767 377.216 201.325 377.476 200.938C377.737 200.551 378.084 200.229 378.49 200V200Z" fill="#455A64"/>
<path d="M378.49 188.21L407.24 171.53C408.08 171.05 408.75 171.27 408.75 172.02C408.69 172.484 408.521 172.927 408.259 173.314C407.997 173.701 407.648 174.022 407.24 174.25L378.49 190.93C377.66 191.41 376.99 191.19 376.99 190.44C377.049 189.977 377.216 189.535 377.476 189.148C377.737 188.761 378.084 188.439 378.49 188.21V188.21Z" fill="#455A64"/>
<path d="M101.67 135.85L106.81 132.85C106.912 132.805 106.996 132.728 107.05 132.63L108.05 130.98L104.99 129.22L105.09 129.49L101.67 135.85Z" fill="#5600FF"/>
<g opacity="0.1">
<path d="M101.67 135.85L106.81 132.85C106.912 132.805 106.996 132.728 107.05 132.63L108.05 130.98L104.99 129.22L105.09 129.49L101.67 135.85Z" fill="black"/>
</g>
<path d="M105.41 129.5L101.85 135.66C101.805 135.761 101.73 135.846 101.634 135.902C101.539 135.959 101.428 135.984 101.318 135.974C101.207 135.964 101.103 135.919 101.019 135.847C100.935 135.775 100.876 135.678 100.85 135.57L97.0901 124.72L105.41 129.5Z" fill="#5600FF"/>
<path d="M85.9301 95.16C85.9762 94.2976 86.2258 93.4583 86.6586 92.7109C87.0914 91.9636 87.695 91.3293 88.4201 90.86V90.86C89.1944 90.4657 90.0511 90.2602 90.9201 90.2602C91.789 90.2602 92.6457 90.4657 93.4201 90.86L133.68 114.08C134.402 114.552 135.003 115.187 135.434 115.934C135.865 116.681 136.113 117.519 136.16 118.38V138.77C136.113 139.631 135.865 140.469 135.434 141.216C135.003 141.963 134.402 142.598 133.68 143.07V143.07C132.906 143.464 132.049 143.67 131.18 143.67C130.311 143.67 129.454 143.464 128.68 143.07L88.1801 119.68C85.9501 118.41 85.9301 117.13 85.9301 115.55V95.16Z" fill="#5600FF"/>
<path d="M122.74 125.11L94 108.43C93.17 107.95 92.5 108.17 92.5 108.92C92.5594 109.383 92.7259 109.825 92.9863 110.212C93.2467 110.599 93.5938 110.921 94 111.15L122.75 127.83C123.59 128.31 124.26 128.09 124.26 127.34C124.198 126.875 124.029 126.432 123.765 126.044C123.501 125.657 123.15 125.337 122.74 125.11V125.11Z" fill="#455A64"/>
<path d="M114 125.88L94 114.26C93.17 113.78 92.5 114 92.5 114.75C92.5564 115.216 92.7216 115.663 92.9821 116.054C93.2426 116.444 93.5913 116.769 94 117L114 128.62C114.83 129.1 115.51 128.88 115.51 128.13C115.452 127.663 115.286 127.216 115.024 126.825C114.761 126.434 114.411 126.11 114 125.88V125.88Z" fill="#455A64"/>
<path d="M122.74 119.23L94 102.55C93.17 102.07 92.5 102.29 92.5 103.04C92.5594 103.503 92.7259 103.945 92.9863 104.332C93.2467 104.719 93.5938 105.041 94 105.27L122.74 122C123.58 122.48 124.25 122.26 124.25 121.51C124.197 121.037 124.032 120.584 123.77 120.188C123.507 119.792 123.154 119.463 122.74 119.23V119.23Z" fill="#455A64"/>
<path opacity="0.1" d="M136.12 138.77C136.074 139.631 135.825 140.469 135.394 141.216C134.963 141.963 134.362 142.598 133.64 143.07V143.07C132.94 143.425 132.172 143.628 131.388 143.664C130.603 143.7 129.82 143.569 129.09 143.28C130.26 143.72 131.15 143.05 131.15 141.64V121.25C131.119 120.385 130.868 119.541 130.42 118.8L135.42 115.94C135.87 116.677 136.121 117.517 136.15 118.38L136.12 138.77Z" fill="black"/>
<path opacity="0.3" d="M86 94.46C86.29 93.4 87.25 93.07 88.4 93.73L128.67 117C129.406 117.451 130.01 118.09 130.42 118.85L135.42 115.99C135.002 115.233 134.4 114.594 133.67 114.13L93.39 90.86C92.6152 90.4673 91.7587 90.2626 90.89 90.2626C90.0213 90.2626 89.1648 90.4673 88.39 90.86C87.768 91.2663 87.2354 91.7951 86.8244 92.414C86.4135 93.0329 86.133 93.7291 86 94.46Z" fill="white"/>
<path d="M339.76 147.19L334.22 143.99C334.11 143.945 334.018 143.864 333.96 143.76L332.96 141.98L336.25 140.08L336.15 140.37L339.76 147.19Z" fill="#263238"/>
<path d="M335.73 140.35L339.56 146.99C339.619 147.073 339.7 147.138 339.793 147.18C339.885 147.222 339.988 147.239 340.089 147.229C340.19 147.219 340.287 147.182 340.37 147.123C340.453 147.063 340.518 146.983 340.56 146.89L344.56 135.19L335.73 140.35Z" fill="#37474F"/>
<path d="M381.21 61.32C381.16 60.3901 380.892 59.4852 380.426 58.6788C379.96 57.8725 379.311 57.1876 378.53 56.68L376.35 55.42C375.52 54.996 374.602 54.775 373.67 54.775C372.738 54.775 371.82 54.996 370.99 55.42L319.48 85.17C318.699 85.6776 318.05 86.3625 317.584 87.1688C317.118 87.9752 316.85 88.8801 316.8 89.81V139.49C316.85 140.42 317.118 141.325 317.584 142.131C318.05 142.938 318.699 143.622 319.48 144.13L321.66 145.39C322.49 145.814 323.408 146.035 324.34 146.035C325.272 146.035 326.19 145.814 327.02 145.39L378.78 115.46C381.19 114.09 381.21 112.71 381.21 111V61.32Z" fill="#37474F"/>
<path d="M316.8 139.49C316.85 140.42 317.118 141.325 317.584 142.131C318.05 142.938 318.699 143.622 319.48 144.13L321.66 145.39C322.415 145.771 323.241 145.989 324.085 146.029C324.93 146.068 325.773 145.929 326.56 145.62C325.3 146.09 324.34 145.37 324.34 143.85V94.16C324.372 93.2268 324.645 92.3176 325.13 91.52L317.59 87.17C317.103 87.9671 316.831 88.8766 316.8 89.81V139.49Z" fill="#263238"/>
<path d="M381.12 60.56C380.81 59.42 379.77 59.06 378.53 59.77L327 89.52C326.207 90.0112 325.556 90.7005 325.11 91.52L317.57 87.17C318.019 86.3526 318.669 85.664 319.46 85.17L371 55.42C371.832 55.0045 372.75 54.7882 373.68 54.7882C374.61 54.7882 375.528 55.0045 376.36 55.42L378.55 56.68C379.218 57.1196 379.791 57.69 380.232 58.3569C380.674 59.0237 380.976 59.7732 381.12 60.56V60.56Z" fill="#455A64"/>
<path d="M329.65 97.49C329.668 97.201 329.753 96.9201 329.899 96.67C330.045 96.4199 330.247 96.2075 330.49 96.05L373 71.48C373.26 71.3521 373.545 71.2855 373.835 71.2855C374.125 71.2855 374.41 71.3521 374.67 71.48L375.61 72.02C375.85 72.1798 376.05 72.3929 376.194 72.6427C376.338 72.8925 376.422 73.1722 376.44 73.46V106.08C376.422 106.369 376.338 106.65 376.194 106.902C376.05 107.153 375.85 107.368 375.61 107.53L333.09 132.1C332.83 132.228 332.545 132.294 332.255 132.294C331.965 132.294 331.68 132.228 331.42 132.1L330.49 131.56C330.247 131.4 330.044 131.186 329.899 130.934C329.753 130.683 329.668 130.4 329.65 130.11V97.49Z" fill="#5600FF"/>
<path opacity="0.4" d="M329.65 97.49C329.668 97.201 329.753 96.9201 329.899 96.67C330.045 96.4199 330.247 96.2075 330.49 96.05L373 71.48C373.26 71.3521 373.545 71.2855 373.835 71.2855C374.125 71.2855 374.41 71.3521 374.67 71.48L375.61 72.02C375.85 72.1798 376.05 72.3929 376.194 72.6427C376.338 72.8925 376.422 73.1722 376.44 73.46V106.08C376.422 106.369 376.338 106.65 376.194 106.902C376.05 107.153 375.85 107.368 375.61 107.53L333.09 132.1C332.83 132.228 332.545 132.294 332.255 132.294C331.965 132.294 331.68 132.228 331.42 132.1L330.49 131.56C330.247 131.4 330.044 131.186 329.899 130.934C329.753 130.683 329.668 130.4 329.65 130.11V97.49Z" fill="white"/>
<path d="M333.55 98.79L329.9 96.67C329.749 96.918 329.663 97.2 329.65 97.49V130.11C329.668 130.4 329.753 130.683 329.899 130.934C330.044 131.186 330.247 131.4 330.49 131.56L331.42 132.1C331.68 132.228 331.965 132.294 332.255 132.294C332.545 132.294 332.83 132.228 333.09 132.1L333.55 131.83V98.79Z" fill="#5600FF"/>
<path opacity="0.3" d="M333.55 98.79L329.9 96.67C329.749 96.918 329.663 97.2 329.65 97.49V130.11C329.668 130.4 329.753 130.683 329.899 130.934C330.044 131.186 330.247 131.4 330.49 131.56L331.42 132.1C331.68 132.228 331.965 132.294 332.255 132.294C332.545 132.294 332.83 132.228 333.09 132.1L333.55 131.83V98.79Z" fill="black"/>
<path d="M376.48 73.46V106.09C376.463 106.361 376.387 106.625 376.258 106.863C376.128 107.101 375.948 107.309 375.73 107.47V107.47H375.68L333.09 132.1C333.008 132.157 332.912 132.192 332.813 132.202C332.713 132.213 332.613 132.198 332.52 132.16C332.431 132.101 332.36 132.018 332.316 131.921C332.272 131.824 332.256 131.716 332.27 131.61V99C332.261 98.8833 332.281 98.7662 332.328 98.6591C332.375 98.5519 332.447 98.4581 332.54 98.3858C332.632 98.3136 332.74 98.2652 332.855 98.245C332.971 98.2248 333.089 98.2334 333.2 98.27L351.1 102.52L353.44 103.08C353.717 103.131 354.003 103.106 354.267 103.007C354.532 102.909 354.764 102.74 354.94 102.52L357.65 98.74L375.93 73.29C376.23 72.85 376.48 72.93 376.48 73.46Z" fill="#5600FF"/>
<path d="M375.65 107.53H375.7C375.9 107.387 376.068 107.203 376.19 106.99C376.345 106.74 376.435 106.454 376.45 106.16L357.61 98.79L370.22 110.7L375.65 107.53Z" fill="#5600FF"/>
<path opacity="0.2" d="M375.65 107.53H375.7C375.9 107.387 376.068 107.203 376.19 106.99C376.345 106.74 376.435 106.454 376.45 106.16L357.61 98.79L370.22 110.7L375.65 107.53Z" fill="black"/>
<path d="M332.26 131.61C332.246 131.716 332.262 131.824 332.306 131.921C332.35 132.018 332.421 132.101 332.51 132.16C332.602 132.198 332.703 132.213 332.803 132.202C332.902 132.192 332.998 132.157 333.08 132.1V132.1L347.73 123.64L351.08 102.51L332.25 131.07L332.26 131.61Z" fill="#5600FF"/>
<path opacity="0.2" d="M332.26 131.61C332.246 131.716 332.262 131.824 332.306 131.921C332.35 132.018 332.421 132.101 332.51 132.16C332.602 132.198 332.703 132.213 332.803 132.202C332.902 132.192 332.998 132.157 333.08 132.1V132.1L347.73 123.64L351.08 102.51L332.25 131.07L332.26 131.61Z" fill="black"/>
<path d="M376.22 106.93C376.097 107.143 375.93 107.327 375.73 107.47V107.47L333.09 132.1C333.008 132.157 332.912 132.192 332.813 132.202C332.713 132.213 332.612 132.198 332.52 132.16L352.9 99.63C353.309 98.9805 353.938 98.4992 354.672 98.2736C355.406 98.0479 356.196 98.0928 356.9 98.4L376.22 106.93Z" fill="#5600FF"/>
<path opacity="0.3" d="M332.6 98.21L352 106.76C352.701 107.079 353.494 107.131 354.231 106.906C354.967 106.682 355.596 106.196 356 105.54L376.26 73L332.6 98.21Z" fill="black"/>
<path d="M332.6 98.21L352.1 105.5C352.775 105.751 353.514 105.765 354.197 105.539C354.881 105.314 355.467 104.863 355.86 104.26L376.26 73L332.6 98.21Z" fill="#5600FF"/>
<path d="M392.46 49L388 46.35C386.46 45.48 384.34 45.61 382 46.96C377.29 49.68 373.47 56.3 373.47 61.75C373.47 64.46 374.42 66.37 375.96 67.27L380.15 69.67L380.9 68.41C381.763 68.2028 382.589 67.8656 383.35 67.41C388.07 64.68 391.89 58.06 391.89 52.62C391.889 51.8851 391.798 51.1531 391.62 50.44L392.46 49Z" fill="#F28F8F"/>
<path d="M386.24 49.44C381.53 52.16 377.71 58.78 377.71 64.22C377.71 69.66 381.53 71.88 386.24 69.15C390.95 66.42 394.78 59.81 394.78 54.37C394.78 48.93 391 46.72 386.24 49.44Z" fill="#FFA8A7"/>
<path d="M383.19 59.53C383.134 59.448 383.113 59.3476 383.13 59.25C383.149 59.1257 383.194 59.0067 383.26 58.9L385.74 54.9L385.97 54.56C386.05 54.4386 386.156 54.3362 386.28 54.26L387.68 53.44C387.714 53.4176 387.754 53.4057 387.795 53.4057C387.836 53.4057 387.876 53.4176 387.91 53.44C387.942 53.4709 387.966 53.5084 387.982 53.5499C387.998 53.5914 388.004 53.6358 388 53.68V63.68C387.997 63.7989 387.967 63.9154 387.91 64.02C387.858 64.1228 387.778 64.2093 387.68 64.27L386.17 65.15C386.139 65.1743 386.1 65.1875 386.06 65.1875C386.02 65.1875 385.982 65.1743 385.95 65.15C385.918 65.1191 385.894 65.0816 385.878 65.0401C385.863 64.9986 385.856 64.9542 385.86 64.91V58.15L384.48 60.34C384.43 60.4346 384.349 60.5089 384.25 60.55C384.22 60.5735 384.183 60.5863 384.145 60.5863C384.107 60.5863 384.07 60.5735 384.04 60.55L383.19 59.53Z" fill="white"/>
<path d="M403.36 310.19C400.93 307.37 398.97 303.37 398.1 302.54C395.57 300.13 393 266 393 266C398.91 265.8 402.08 268 403.1 272.54C404.12 277.08 408.17 299.04 408.17 299.04" fill="#B78876"/>
<path d="M367.35 312.73C364.41 318.67 357.15 336.55 354.27 348.92C351.57 360.5 350.52 368.52 354.27 371.32C358.02 374.12 368.75 372.42 375.55 357.95C377.68 353.42 385.69 339.44 385.69 339.44C385.69 339.44 391.61 337.31 393.69 335.71C393.69 335.71 413.45 336.28 423.05 334.32C432.65 332.36 442.86 320.62 438.93 319.47C431.86 317.39 418.08 315.88 402.13 314.85L367.35 312.73Z" fill="#37474F"/>
<path d="M413.59 331.84C409.27 332.84 402.87 331.5 399.25 330.45C399.472 329.179 399.431 327.875 399.13 326.62C398.929 328.312 398.385 329.946 397.53 331.42C396.94 331.76 396.43 332.04 396.07 332.22C393.67 333.45 387.07 336.82 385.85 335.76C384.006 333.381 381.388 331.722 378.45 331.07C380.52 332.46 386.51 336.75 384.38 341.73L385.69 339.44C385.69 339.44 391.61 337.31 393.69 335.71C393.69 335.71 404.69 336.03 414.33 335.37L425.71 327.49C425.71 327.49 420.22 327.17 413.59 331.84Z" fill="#263238"/>
<path d="M402.52 345.67C400.45 347.54 397.29 349.04 395.07 348.58C392.85 348.12 389.67 347.9 388.43 352.33C387.02 357.33 382.43 360.42 379.91 363.18C377.39 365.94 378.18 370.08 379.5 372.94C381.72 377.76 384.96 374.85 386.76 371.79C388.56 368.73 393.84 363.12 396.39 360.79C399.217 357.981 402.223 355.359 405.39 352.94L402.52 345.67Z" fill="#B78876"/>
<path d="M432.28 319.1C444.65 317.84 444.9 325.39 441.72 330.5C438.29 336 425.2 342.79 418.79 346.05C412.38 349.31 403.43 354.43 403.43 354.43C401.517 352.387 400.314 349.781 400 347C407 342.08 413.89 329.44 425.64 327.49L432.28 319.1Z" fill="#37474F"/>
<path d="M395.89 348.66C395.615 348.654 395.341 348.627 395.07 348.58C392.85 348.11 389.67 347.9 388.43 352.33C387.02 357.33 382.43 360.42 379.91 363.18C377.39 365.94 378.18 370.08 379.5 372.94C381.72 377.76 384.96 374.85 386.76 371.79C387.741 370.253 388.841 368.795 390.05 367.43C389.494 368.092 388.707 368.517 387.849 368.619C386.991 368.721 386.126 368.493 385.43 367.98C384.52 367.19 385.19 364.41 386.88 362.54C388.57 360.67 394.72 348.51 395.89 348.66Z" fill="#263238"/>
<path d="M397.43 347.2C399.69 346.63 403.01 345.82 404.38 344.02C405.75 342.22 408.59 340.47 412.44 343.02C416.8 345.89 422.26 345.21 425.98 345.62C429.7 346.03 431.81 349.7 432.69 352.72C434.18 357.82 429.9 356.08 426.54 354.95C423.18 353.82 415.37 352.76 412.06 353.2C408.75 353.64 400.45 355.74 400.45 355.74L397.43 347.2Z" fill="#B78876"/>
<path d="M424.94 354.46C425.53 354.61 426.08 354.76 426.54 354.92C429.9 356.05 434.18 357.79 432.69 352.69C431.81 349.69 429.69 346.01 425.98 345.59C422.27 345.17 416.8 345.86 412.44 342.99C408.59 340.47 405.75 342.21 404.38 343.99C404.219 344.191 404.042 344.378 403.85 344.55V344.55C403.85 344.55 408.28 345.92 413.16 347.33C418.04 348.74 426.3 351.18 426.61 352.44C426.84 353.38 427 354.52 424.94 354.46Z" fill="#263238"/>
<path d="M352.24 368C352.96 372.4 357.89 374.52 368.46 372.4C379.03 370.28 401.8 355.83 401.8 355.83C401.8 355.83 403.2 348.38 397.42 346.75C397.42 346.75 392.16 347.75 383.58 349.57C379.707 350.424 375.881 351.482 372.12 352.74C366.32 360.52 360.28 357.38 358.12 360.12C354.49 364.71 352.24 368 352.24 368Z" fill="#37474F"/>
<path d="M379.43 350.58C375.054 351.505 370.869 353.176 367.06 355.52C367.06 355.52 372.47 349.18 380.83 348.04L379.43 350.58Z" fill="#263238"/>
<path d="M400.51 293.76C400.99 298.26 402.1 314.85 402.1 314.85C398.61 326.62 371.51 324.25 366.27 315.02C367.945 311.186 369.306 307.224 370.34 303.17L367.46 290.58C367.46 290.58 374.35 284.3 367.46 271.48L376.57 268.75L393 266C395.77 266.15 400.47 272.5 402.28 277.14C403.43 280.11 404.36 286.14 400.51 293.76Z" fill="#5600FF"/>
<path opacity="0.15" d="M386.3 322.83C374.93 322.35 369.69 315.36 369.81 313.52C370.222 310.824 370.783 308.154 371.49 305.52L375.75 307.19L372.24 302.07L369.81 291.16C372.38 287.39 371.11 280.57 371.11 280.57L370.4 280.15C371.23 287.15 367.46 290.58 367.46 290.58L370.34 303.17C369.305 307.217 367.944 311.173 366.27 315C369.05 319.92 378 322.89 386.3 322.83Z" fill="black"/>
<path d="M386.17 261.63L380.17 261.79C378.191 261.845 376.22 261.509 374.371 260.801C372.522 260.094 370.83 259.029 369.392 257.668C367.955 256.306 366.799 254.675 365.992 252.867C365.186 251.059 364.743 249.109 364.69 247.13V247.13C364.625 244.759 365.027 242.398 365.874 240.183C366.722 237.967 367.997 235.94 369.628 234.218C371.258 232.495 373.212 231.111 375.378 230.143C377.544 229.176 379.879 228.645 382.25 228.58C384.621 228.515 386.982 228.917 389.197 229.764C391.413 230.612 393.44 231.887 395.162 233.518C396.885 235.148 398.269 237.102 399.237 239.268C400.204 241.434 400.735 243.769 400.8 246.14V246.14C400.91 250.133 399.432 254.007 396.689 256.911C393.946 259.815 390.163 261.512 386.17 261.63V261.63Z" fill="#263238"/>
<path d="M367.66 238.35L363.17 236.78C363.257 236.476 363.405 236.193 363.606 235.949C363.806 235.705 364.055 235.505 364.337 235.362C364.618 235.218 364.926 235.134 365.242 235.115C365.557 235.096 365.873 235.142 366.17 235.25C366.768 235.478 367.256 235.926 367.533 236.503C367.81 237.08 367.855 237.741 367.66 238.35Z" fill="#263238"/>
<path d="M367.61 237.19L366.23 232.65C366.524 232.54 366.838 232.491 367.152 232.507C367.465 232.523 367.773 232.603 368.054 232.743C368.335 232.883 368.585 233.079 368.787 233.319C368.99 233.559 369.14 233.839 369.23 234.14C369.409 234.759 369.341 235.424 369.038 235.993C368.736 236.563 368.223 236.992 367.61 237.19V237.19Z" fill="#263238"/>
<path d="M393.63 236.36C395.57 237.44 398.06 242.17 398.1 252.24C398.1 260.77 395.43 262.95 394.1 263.59C392.77 264.23 390.04 263.94 387.43 263.59L387.48 267.12C387.48 267.12 392.17 272.25 392 274.6C391.83 276.95 386 278.17 382.58 275.97C380.1 274.166 377.94 271.958 376.19 269.44L375.93 257.62C375.93 257.62 374.44 259.15 371.78 256.95C369.59 255.13 368.78 251.95 370.41 250.25C370.83 249.828 371.345 249.512 371.912 249.33C372.478 249.147 373.081 249.103 373.668 249.201C374.256 249.299 374.811 249.536 375.288 249.892C375.765 250.249 376.15 250.714 376.41 251.25C376.41 251.25 380.56 251.25 386 248.1C388.103 246.878 389.889 245.179 391.214 243.139C392.539 241.1 393.367 238.778 393.63 236.36V236.36Z" fill="#B78876"/>
<path d="M388.52 250.35C388.54 250.495 388.53 250.642 388.491 250.783C388.451 250.923 388.384 251.054 388.292 251.168C388.2 251.281 388.086 251.375 387.957 251.443C387.828 251.511 387.686 251.551 387.54 251.562C387.394 251.573 387.248 251.554 387.11 251.506C386.972 251.459 386.845 251.383 386.738 251.285C386.63 251.186 386.543 251.066 386.484 250.933C386.424 250.8 386.392 250.656 386.39 250.51C386.37 250.365 386.38 250.218 386.419 250.077C386.459 249.937 386.526 249.806 386.618 249.692C386.71 249.579 386.824 249.485 386.953 249.417C387.083 249.349 387.224 249.309 387.37 249.298C387.516 249.287 387.662 249.306 387.8 249.354C387.938 249.401 388.065 249.477 388.172 249.575C388.28 249.674 388.367 249.794 388.426 249.927C388.486 250.06 388.518 250.204 388.52 250.35Z" fill="#263238"/>
<path d="M389 257.57L391.51 258.3C391.469 258.468 391.395 258.626 391.292 258.765C391.189 258.904 391.058 259.02 390.909 259.107C390.759 259.194 390.594 259.25 390.422 259.271C390.25 259.292 390.076 259.278 389.91 259.23C389.572 259.126 389.289 258.894 389.119 258.584C388.949 258.274 388.906 257.911 389 257.57V257.57Z" fill="#F28F8F"/>
<path d="M397.22 246.82L395 245.38C395.088 245.231 395.205 245.102 395.344 245C395.484 244.898 395.642 244.825 395.81 244.786C395.979 244.747 396.153 244.742 396.323 244.772C396.493 244.802 396.655 244.866 396.8 244.96C397.096 245.156 397.305 245.459 397.383 245.806C397.461 246.152 397.403 246.516 397.22 246.82Z" fill="#263238"/>
<path d="M396.79 249.35C396.805 249.494 396.791 249.64 396.748 249.779C396.706 249.918 396.636 250.046 396.543 250.157C396.449 250.268 396.335 250.36 396.205 250.425C396.076 250.491 395.935 250.53 395.79 250.54C395.504 250.559 395.222 250.465 395.005 250.278C394.788 250.091 394.653 249.826 394.63 249.54C394.619 249.399 394.637 249.258 394.681 249.124C394.725 248.991 394.795 248.867 394.887 248.76C394.979 248.653 395.091 248.566 395.217 248.502C395.342 248.439 395.479 248.401 395.62 248.39C395.76 248.379 395.902 248.397 396.035 248.441C396.169 248.485 396.293 248.555 396.4 248.647C396.507 248.739 396.594 248.851 396.658 248.977C396.721 249.102 396.759 249.239 396.77 249.38L396.79 249.35Z" fill="#263238"/>
<path d="M391.94 248.34L392.06 255.32L395.43 254.18L391.94 248.34Z" fill="#B78876"/>
<path d="M387.39 263.58C384.64 263.29 378.95 261.82 378.01 259.58C378.399 260.697 379.117 261.67 380.07 262.37C381.79 263.77 387.44 265.24 387.44 265.24L387.39 263.58Z" fill="#B78876"/>
<path d="M369.32 343.42V344.23C369.315 344.634 369.416 345.031 369.615 345.383C369.813 345.734 370.102 346.026 370.45 346.23L392.13 358.7C392.476 358.903 392.869 359.01 393.27 359.01C393.671 359.01 394.064 358.903 394.41 358.7L434.18 335.7C434.532 335.499 434.823 335.208 435.024 334.856C435.224 334.504 435.327 334.105 435.32 333.7V333.15L393.27 357.42L369.32 343.42Z" fill="#EBEBEB"/>
<path d="M435.32 333.19L411.74 319.57C411.533 319.452 411.298 319.389 411.06 319.389C410.821 319.389 410.587 319.452 410.38 319.57L369.47 343.2C369.424 343.226 369.386 343.264 369.36 343.31C369.333 343.355 369.32 343.407 369.32 343.46C369.32 343.513 369.333 343.565 369.36 343.61C369.386 343.656 369.424 343.694 369.47 343.72L393.27 357.47L435.32 333.19Z" fill="#FAFAFA"/>
<path d="M408.15 299C411.32 303.61 418.51 313.63 421.74 319.37C423.6 322.68 421.26 325.89 416.18 324.53C412.83 323.64 408.02 315.61 403.36 310.17" fill="#B78876"/>
<path d="M393.06 355.46L380.34 348.13L417.53 326.65L430.32 333.95L393.06 355.46Z" fill="#E0E0E0"/>
<path d="M386.8 335.05L387.04 335.19L393.27 338.79L404.36 332.39L404.59 332.26L398.12 328.52L386.8 335.05Z" fill="#E0E0E0"/>
<path d="M387.04 335.19L393.27 338.79L404.36 332.39L398.12 328.79L387.04 335.19Z" fill="#E6E6E6"/>
<path d="M393.27 357.46V359C393.671 359.002 394.065 358.894 394.41 358.69L434.18 335.69C434.532 335.489 434.823 335.198 435.024 334.846C435.224 334.494 435.327 334.095 435.32 333.69V333.14L393.27 357.46Z" fill="#EBEBEB"/>
<g opacity="0.5">
<path d="M393.27 357.46V359C393.671 359.002 394.065 358.894 394.41 358.69L434.18 335.69C434.532 335.489 434.823 335.198 435.024 334.846C435.224 334.494 435.327 334.095 435.32 333.69V333.14L393.27 357.46Z" fill="#E0E0E0"/>
</g>
<path d="M393.91 357.8C394.286 357.945 394.689 358.004 395.09 357.973C395.492 357.942 395.881 357.821 396.23 357.62L435.83 334.76C436.176 334.563 436.473 334.291 436.7 333.964C436.926 333.637 437.077 333.263 437.14 332.87L441.48 307C441.49 306.854 441.49 306.706 441.48 306.56C441.481 306.204 441.412 305.851 441.276 305.521C441.141 305.192 440.941 304.892 440.69 304.64L399.54 328.41C399.281 328.553 399.057 328.752 398.884 328.993C398.711 329.233 398.593 329.509 398.54 329.8L393.91 357.8Z" fill="#5600FF"/>
<g opacity="0.7">
<path d="M393.91 357.8C394.286 357.945 394.689 358.004 395.09 357.973C395.492 357.942 395.881 357.821 396.23 357.62L435.83 334.76C436.176 334.563 436.473 334.291 436.7 333.964C436.926 333.637 437.077 333.263 437.14 332.87L441.48 307C441.49 306.854 441.49 306.706 441.48 306.56C441.481 306.204 441.412 305.851 441.276 305.521C441.141 305.192 440.941 304.892 440.69 304.64L399.54 328.41C399.281 328.553 399.057 328.752 398.884 328.993C398.711 329.233 398.593 329.509 398.54 329.8L393.91 357.8Z" fill="white"/>
</g>
<path d="M393.27 357.47L393.54 357.62C393.659 357.688 393.783 357.748 393.91 357.8L398.6 329.8C398.653 329.509 398.771 329.233 398.944 328.993C399.117 328.752 399.341 328.553 399.6 328.41L440.75 304.64C440.582 304.484 440.397 304.347 440.2 304.23L398.96 328.03C398.7 328.174 398.475 328.375 398.302 328.617C398.129 328.859 398.012 329.137 397.96 329.43L393.27 357.47Z" fill="#FAFAFA"/>
<path d="M416.22 333.93C416.84 331.767 418.273 329.928 420.22 328.8C422.13 327.69 423.45 328.2 423.16 329.93C422.534 332.092 421.102 333.932 419.16 335.07C417.24 336.17 415.93 335.66 416.22 333.93Z" fill="#5600FF"/>
<path d="M372.7 338.74C370.52 337.24 356.63 327.13 351.08 322.83C345.3 318.35 345.65 316.91 346.35 313.68C347.73 307.3 356.49 287.21 358.9 281.25C361.6 274.6 362.22 273.76 367.46 271.48C371.08 274.34 373.1 281.35 368.23 291.01L358.31 314.35C358.31 314.35 364.92 321.35 368.83 325.05C372.74 328.75 376.19 332.9 379.11 333.22C381.43 333.47 385.54 333.63 386.42 334.44C388.572 336.611 390.576 338.922 392.42 341.36C393.25 342.72 395.22 345.49 392.42 346.36C389.87 347.16 387.79 346.07 385.71 344.65C384.738 343.948 383.813 343.183 382.94 342.36C380.865 342.592 378.769 342.176 376.94 341.17C375.34 340.29 372.7 338.74 372.7 338.74Z" fill="#B78876"/>
<path d="M365.34 280.57H365.63C367.038 280.569 368.432 280.287 369.729 279.739C371.026 279.192 372.201 278.39 373.184 277.382C374.167 276.374 374.938 275.179 375.453 273.869C375.967 272.558 376.215 271.158 376.18 269.75L375.91 258.5C374.522 258.499 373.148 258.771 371.866 259.301C370.583 259.831 369.418 260.609 368.436 261.589C367.455 262.57 366.676 263.735 366.145 265.017C365.613 266.298 365.34 267.672 365.34 269.06V280.57Z" fill="#263238"/>
<path d="M84.63 243.21C83.63 245.36 80.41 248.48 76.68 244.46C71.23 238.57 62.25 217.66 62.25 217.66L68.15 214.93L80.15 231.35L86.56 238.47" fill="#B78876"/>
<path d="M86.22 203.06C83.39 212.55 77.7 233.69 77.7 233.69L84.63 243.21C85.8678 240.771 86.924 238.244 87.79 235.65C89 232.35 93 219.18 93 219.18C93 219.18 92.15 200.18 95.12 197.64C96.7221 196.222 98.5734 195.113 100.58 194.37C95.85 194.75 88.8 194.37 86.22 203.06Z" fill="#B78876"/>
<path d="M72.92 204.43C71.35 201.51 70.92 201.38 70.03 200.74C69.14 200.1 63.38 199.25 61.03 199.05C58.23 198.81 57.24 199.33 58.03 201.73C59.69 206.87 64.73 217.78 65.86 219.29C66.6 220.29 66.75 221.19 69.86 221.5C72.79 221.78 76.47 221.94 77.55 222.01C78.63 222.08 80.13 222.34 79.16 219.16C77.9232 215.556 76.4945 212.021 74.88 208.57C73.67 206 72.92 204.43 72.92 204.43Z" fill="#263238"/>
<path d="M62.2499 217.66C61.0799 212.5 57.6499 207.74 59.5899 206L60.5899 208.28C60.5899 208.28 67.0099 209.82 70.1099 209.58C73.2099 209.34 75.7399 208.58 76.5899 209.2C78.3899 210.47 78.9099 215.87 73.7499 217.84C69.4099 219.5 62.2499 217.66 62.2499 217.66Z" fill="#B78876"/>
<path d="M101 192.68C95.3199 192.74 89.0699 194.81 86.9199 199.26C84.7699 203.71 80.7899 220 80.7899 220C82.4389 221.507 84.3852 222.653 86.5037 223.362C88.6221 224.072 90.8657 224.33 93.0899 224.12L101 192.68Z" fill="#5600FF"/>
<path opacity="0.1" d="M101 192.68C95.3199 192.74 89.0699 194.81 86.9199 199.26C84.7699 203.71 80.7899 220 80.7899 220C82.4389 221.507 84.3852 222.653 86.5037 223.362C88.6221 224.072 90.8657 224.33 93.0899 224.12L101 192.68Z" fill="black"/>
<path d="M125.68 356.68H117.82V368.12H125.68V356.68Z" fill="#B78876"/>
<path d="M98.0509 342.52L90.1956 342.79L90.5888 354.223L98.4442 353.953L98.0509 342.52Z" fill="#B78876"/>
<path d="M125.16 245C125.16 252.51 126.16 301 126.16 301C126.34 303.15 128.36 307.13 127.93 315.42C127.33 326.69 126.36 357.97 126.36 357.97C126.36 357.97 122.67 361.63 117.47 357.97C117.47 357.97 110.36 315.46 108.95 304.3C107.72 294.56 105.64 268.1 105.64 268.1L101.64 299.86C101.64 299.86 102.92 307.19 103.2 312.35C103.48 317.51 98.5899 346.76 98.5899 346.76C97.3177 347.558 95.8583 348.007 94.3577 348.063C92.8572 348.119 91.3682 347.78 90.0399 347.08C90.0399 347.08 87.0399 304.08 86.1999 299.42C85.3599 294.76 88.4099 245 88.4099 245H125.16Z" fill="#37474F"/>
<path d="M113.33 193C114.25 193.22 121.82 195 125.16 196.13V245C119.65 251 100.44 253.79 88.41 245V206.7C88.41 200.58 91.81 193.23 101.2 192.7L113.33 193Z" fill="#EBEBEB"/>
<path d="M116 161.72C116.631 161.648 117.271 161.72 117.871 161.931C118.47 162.143 119.014 162.488 119.46 162.94C120.95 164.46 120.64 167.28 119.46 173.75L114.86 174.28L116 161.72Z" fill="#263238"/>
<path d="M89.17 159.85C88.1805 159.854 87.2006 159.657 86.29 159.27C84.88 158.46 84.51 160.06 85.29 161.45C85.8002 162.448 86.5583 163.299 87.4915 163.921C88.4248 164.542 89.502 164.914 90.62 165C90.62 164.8 91.94 161.4 91.94 161.4L89.17 159.85Z" fill="#263238"/>
<path d="M113.82 174.28C114.5 174.69 115.48 173.38 116.32 172.5C117.16 171.62 119.91 170.41 121.32 173.3C122.73 176.19 120.11 180.13 117.94 180.81C114.22 181.98 113.66 179.59 113.66 179.59L113.33 193C112.511 194.797 111.261 196.365 109.691 197.563C108.121 198.762 106.28 199.554 104.33 199.87C97.7199 200.77 99.0799 195.31 101.25 192.64V188.55C99.5971 188.812 97.9211 188.9 96.2499 188.81C93.4999 188.39 91.7799 186.22 90.9499 183.25C89.6099 178.49 89.0999 174.64 90.2399 165.25C91.4799 154.97 103.43 154.87 109.89 158.93C116.35 162.99 113.82 174.28 113.82 174.28Z" fill="#B78876"/>
<path d="M113.82 175.43C114.16 175.43 115.47 173.27 116.32 172.5C117.5 171.42 115.98 161.72 115.98 161.72C115.98 161.72 117.17 158.04 114.84 155.6C112.51 153.16 108 153.6 104.71 153.46C100.66 153.478 96.6484 152.672 92.9199 151.09C88.2399 149.09 87.9199 148.82 87.3099 150.87C86.6999 152.92 86.5099 157.64 89.3099 160.79L91.6399 161.65C91.6399 161.65 92.8899 162.76 97.2599 163.29C101.291 163.595 105.342 163.521 109.36 163.07C110.63 162.89 110.9 164.12 111.58 167.47C112.17 170.42 112.67 175.41 113.82 175.43Z" fill="#263238"/>
<path d="M116 162.48L120.13 160.26C119.995 159.985 119.805 159.739 119.573 159.539C119.34 159.339 119.07 159.187 118.778 159.094C118.485 159.001 118.177 158.967 117.872 158.996C117.566 159.024 117.27 159.114 117 159.26C116.453 159.567 116.044 160.072 115.858 160.671C115.672 161.27 115.723 161.917 116 162.48V162.48Z" fill="#263238"/>
<path d="M101.21 188.59C101.21 188.59 107.33 187.36 109.47 186.22C110.743 185.569 111.789 184.548 112.47 183.29C112.148 184.544 111.576 185.721 110.79 186.75C109.23 188.75 101.25 190.22 101.25 190.22L101.21 188.59Z" fill="#B78876"/>
<path d="M102.68 172.75C102.69 172.991 102.77 173.224 102.911 173.419C103.052 173.615 103.247 173.765 103.473 173.85C103.698 173.936 103.944 173.953 104.179 173.9C104.414 173.847 104.629 173.726 104.796 173.552C104.963 173.378 105.075 173.159 105.119 172.922C105.162 172.685 105.135 172.44 105.041 172.218C104.946 171.997 104.789 171.807 104.588 171.674C104.387 171.541 104.151 171.47 103.91 171.47C103.745 171.473 103.582 171.508 103.431 171.574C103.279 171.64 103.143 171.735 103.028 171.854C102.914 171.973 102.824 172.113 102.764 172.267C102.705 172.421 102.676 172.585 102.68 172.75V172.75Z" fill="#263238"/>
<path d="M104 168.12L106.63 169.57C106.816 169.21 106.856 168.792 106.742 168.403C106.629 168.014 106.37 167.684 106.02 167.48C105.846 167.384 105.655 167.324 105.458 167.305C105.261 167.285 105.061 167.306 104.872 167.366C104.683 167.426 104.509 167.523 104.359 167.653C104.209 167.783 104.087 167.942 104 168.12V168.12Z" fill="#263238"/>
<path d="M101.77 181.22L99 182.27C99.0595 182.459 99.1567 182.633 99.2857 182.783C99.4147 182.933 99.5729 183.055 99.7506 183.142C99.9283 183.229 100.122 183.279 100.319 183.289C100.517 183.299 100.715 183.269 100.9 183.2C101.271 183.044 101.568 182.752 101.73 182.384C101.892 182.015 101.906 181.599 101.77 181.22V181.22Z" fill="#F28F8F"/>
<path d="M91.74 169.14L94.14 167.3C94.0278 167.138 93.8838 167.001 93.7168 166.896C93.5499 166.792 93.3634 166.723 93.1687 166.693C92.9741 166.663 92.7754 166.673 92.5848 166.722C92.3942 166.772 92.2156 166.859 92.06 166.98C91.7409 167.231 91.53 167.595 91.4705 167.996C91.411 168.398 91.5074 168.807 91.74 169.14V169.14Z" fill="#263238"/>
<path d="M92.48 172.4C92.4898 172.641 92.5702 172.874 92.7111 173.069C92.8521 173.265 93.0474 173.415 93.2729 173.5C93.4983 173.586 93.7439 173.603 93.9791 173.55C94.2143 173.497 94.4288 173.376 94.5958 173.202C94.7629 173.028 94.8752 172.809 94.9187 172.572C94.9623 172.335 94.9352 172.09 94.8408 171.868C94.7464 171.647 94.5889 171.457 94.3878 171.324C94.1868 171.191 93.9511 171.12 93.71 171.12C93.545 171.123 93.3821 171.158 93.2308 171.224C93.0794 171.29 92.9426 171.385 92.8283 171.504C92.7139 171.623 92.6243 171.763 92.5645 171.917C92.5047 172.071 92.476 172.235 92.48 172.4V172.4Z" fill="#263238"/>
<path d="M98.73 171.24L98.33 178.61L94.48 177.3L98.73 171.24Z" fill="#B78876"/>
<path d="M117.82 364.24V363.12C117.07 363.44 115.32 370.12 112.2 372.95C109.72 375.21 106.34 377.82 105.48 380.34C104.62 382.86 110.19 384.41 112.48 384C115.17 383.52 119.83 381.63 121 379.87C122.17 378.11 122.72 375.53 123.67 374.24C124.62 372.95 126.81 371.52 127.33 370.03C127.61 369.21 127.27 367.42 126.88 365.9C126.49 364.38 126.12 362.99 125.64 363.12V364C124.524 364.879 123.14 365.348 121.72 365.33C120.6 365.34 117.81 365.12 117.82 364.24Z" fill="#263238"/>
<path d="M90.5 351.8C90.09 351.8 89.76 352.39 88.86 353.36C87.5169 354.72 85.9553 355.846 84.24 356.69C81.3 358.16 75.58 360.43 72.99 361.59C71.37 362.32 71.45 364.27 73.12 365.38C74.79 366.49 78.83 367.3 83.67 366.21C86.31 365.62 89.75 363.21 91.92 363.32C94.09 363.43 98.1699 363.42 99.7699 362.32C101.37 361.22 100.77 358.85 100.28 356.82C99.79 354.6 99.08 351.21 98.35 351.36V352.06C97.41 353.49 92.5999 354.06 90.5199 353.06L90.5 351.8Z" fill="#263238"/>
<path d="M139.6 239.5C140.09 237.14 134.8 213.71 132.73 206.3L123.56 217L129.2 240.12C128.149 246.587 126.611 252.965 124.6 259.2C124.232 260.168 123.52 260.965 122.6 261.44C120.15 262.75 119.11 264.19 117.22 265.92C115.74 267.27 114.54 267.55 114.69 268.03C114.922 268.555 115.343 268.973 115.869 269.201C116.396 269.429 116.989 269.45 117.53 269.26C118.743 268.875 119.907 268.352 121 267.7C120.041 269.764 118.758 271.661 117.2 273.32C113.64 277.12 113.33 279.59 119.96 280.09C124.11 280.41 127.6 278.09 131.35 269.09C132.43 266.52 133.79 262.77 134.81 259.38C137.21 251.39 138.47 245 139.6 239.5Z" fill="#B78876"/>
<path d="M120.44 210.28C117.94 204.54 119.19 197.82 121.96 195.21C128.96 196.42 130.79 199.75 132.73 206.3C135.73 216.4 137.22 222.96 137.22 222.96C135.46 225.3 128.45 228.02 125.16 227.02L120.44 210.28Z" fill="#5600FF"/>
<path opacity="0.1" d="M120.44 210.28C117.94 204.54 119.19 197.82 121.96 195.21C128.96 196.42 130.79 199.75 132.73 206.3C135.73 216.4 137.22 222.96 137.22 222.96C135.46 225.3 128.45 228.02 125.16 227.02L120.44 210.28Z" fill="black"/>
<path opacity="0.1" d="M125.16 227.02L121.96 215.67L125.16 237.02V227.02Z" fill="black"/>
<path d="M105.61 268.13C101.549 266.864 97.8151 264.724 94.6699 261.86C94.6699 261.86 96.7799 265.81 103.06 269.49L102.72 291.09L105.61 268.13Z" fill="#263238"/>
</svg>
