<svg width="691" height="481" viewBox="0 0 691 481" fill="none" xmlns="http://www.w3.org/2000/svg">
<path d="M48.125 0H424.443C437.202 0.0143667 449.435 5.0893 458.457 14.1114C467.479 23.1335 472.554 35.366 472.568 48.1251V254.001C472.554 266.76 467.479 278.993 458.457 288.015C449.435 297.037 437.202 302.112 424.443 302.126H48.125C35.3659 302.112 23.1334 297.037 14.1113 288.015C5.08923 278.993 0.0143376 266.76 0 254.001V48.1251C0.0143349 35.366 5.08923 23.1335 14.1113 14.1114C23.1334 5.0893 35.3658 0.0143667 48.125 0V0Z" fill="#6C63FF"/>
<path d="M48.1245 13.8542H424.443C433.529 13.8644 442.24 17.4784 448.665 23.9032C455.09 30.3281 458.704 39.0391 458.714 48.1252V254.001C458.704 263.087 455.09 271.798 448.665 278.223C442.24 284.648 433.529 288.262 424.443 288.272H48.1245C39.0385 288.262 30.3276 284.648 23.9028 278.223C17.4781 271.798 13.8642 263.087 13.854 254.001V48.1252C13.8642 39.0392 17.4781 30.3282 23.9028 23.9034C30.3276 17.4785 39.0385 13.8645 48.1245 13.8542Z" fill="white"/>
<path d="M51.7966 375.836C50.661 375.833 49.5373 375.606 48.4897 375.167C46.9261 374.539 45.5887 373.453 44.6525 372.052C43.7163 370.651 43.2249 369 43.2427 367.315V296.145L138.125 292.953L57.7529 373.325C56.9757 374.117 56.049 374.747 55.0265 375.178C54.0041 375.609 52.9062 375.833 51.7966 375.836V375.836Z" fill="#6C63FF"/>
<path d="M377.312 65.063H94.3394C83.01 65.063 73.8257 74.2473 73.8257 85.5767V85.5768C73.8257 96.9062 83.01 106.091 94.3394 106.091H377.312C388.641 106.091 397.826 96.9062 397.826 85.5767C397.826 74.2473 388.641 65.063 377.312 65.063Z" fill="#6C63FF"/>
<path d="M377.77 130.549H94.7979C83.4685 130.549 74.2842 139.734 74.2842 151.063V151.063C74.2842 162.393 83.4685 171.577 94.7979 171.577H377.77C389.1 171.577 398.284 162.393 398.284 151.063C398.284 139.734 389.1 130.549 377.77 130.549Z" fill="#6C63FF"/>
<path d="M378.229 196.035H95.2564C83.927 196.035 74.7427 205.22 74.7427 216.549V216.549C74.7427 227.879 83.927 237.063 95.2564 237.063H378.229C389.558 237.063 398.743 227.879 398.743 216.549C398.743 205.22 389.558 196.035 378.229 196.035Z" fill="#6C63FF"/>
<path d="M642.36 105H266.042C253.283 105.014 241.05 110.089 232.028 119.111C223.006 128.133 217.931 140.366 217.917 153.125V359.001C217.931 371.76 223.006 383.993 232.028 393.015C241.05 402.037 253.283 407.112 266.042 407.126H642.36C655.12 407.112 667.352 402.037 676.374 393.015C685.396 383.993 690.471 371.76 690.485 359.001V153.125C690.471 140.366 685.396 128.133 676.374 119.111C667.352 110.089 655.12 105.014 642.36 105V105Z" fill="#6C63FF"/>
<path d="M642.361 118.854H266.042C256.956 118.864 248.245 122.478 241.82 128.903C235.395 135.328 231.781 144.039 231.771 153.125V359.001C231.781 368.087 235.395 376.798 241.82 383.223C248.245 389.648 256.956 393.262 266.042 393.272H642.361C651.447 393.262 660.158 389.648 666.583 383.223C673.007 376.798 676.621 368.087 676.631 359.001V153.125C676.621 144.039 673.007 135.328 666.583 128.903C660.158 122.479 651.447 118.865 642.361 118.854Z" fill="white"/>
<path d="M613.733 478.325L533.36 397.953L628.243 401.145V472.315C628.261 474 627.769 475.651 626.833 477.052C625.897 478.453 624.559 479.539 622.996 480.167C621.948 480.606 620.825 480.833 619.689 480.836C618.579 480.833 617.482 480.609 616.459 480.178C615.437 479.747 614.51 479.117 613.733 478.325V478.325Z" fill="#6C63FF"/>
<path d="M371.201 282.063C385.561 282.063 397.201 270.422 397.201 256.063C397.201 241.704 385.561 230.063 371.201 230.063C356.842 230.063 345.201 241.704 345.201 256.063C345.201 270.422 356.842 282.063 371.201 282.063Z" fill="#6C63FF"/>
<path d="M454.201 282.063C468.561 282.063 480.201 270.422 480.201 256.063C480.201 241.704 468.561 230.063 454.201 230.063C439.842 230.063 428.201 241.704 428.201 256.063C428.201 270.422 439.842 282.063 454.201 282.063Z" fill="#6C63FF"/>
<path d="M537.201 282.063C551.561 282.063 563.201 270.422 563.201 256.063C563.201 241.704 551.561 230.063 537.201 230.063C522.842 230.063 511.201 241.704 511.201 256.063C511.201 270.422 522.842 282.063 537.201 282.063Z" fill="#6C63FF"/>
</svg>
